<svg height='100px' width='100px'  fill="#000000" xmlns="http://www.w3.org/2000/svg" xmlns:xlink="http://www.w3.org/1999/xlink" xml:space="preserve" version="1.1" style="shape-rendering:geometricPrecision;text-rendering:geometricPrecision;image-rendering:optimizeQuality;" viewBox="0 0 60000 60000" x="0px" y="0px" fill-rule="evenodd" clip-rule="evenodd"><defs><style type="text/css">
   
    .fil0 {fill:#000000;fill-rule:nonzero}
   
  </style></defs><g><path class="fil0" d="M23475.56 11707.9c-215.73,44.87 -427.01,-93.65 -471.88,-309.38 -44.87,-215.73 93.65,-427.01 309.38,-471.88 6215.94,-1308.62 11520.92,-235.37 15675.27,2271.38 2542.14,1533.94 4651.8,3605.98 6274.36,5998.43 1619.99,2388.67 2752.75,5095.56 3343.91,7903.58 1050.91,4991.84 393,10309.19 -2278.12,14735.95 -5308.56,8797.71 -15008.15,11791.8 -23875.83,10451.26 -328.19,-49.61 -655.25,-105.22 -980.93,-166.68 1679.74,1137.12 3415.96,1997.01 5177.39,2601.54 2628.31,24.63 5324.08,-383.68 7945.94,-1146.28 5998.91,-1744.84 11600.55,-5339.38 15124.52,-9846.19 626.99,-801.87 1188.44,-1633.6 1674.77,-2489.86 2901.47,-5108.56 3739.65,-10952.21 2989.04,-16520.61 -315.79,-2342.73 -912.61,-4636.1 -1755.12,-6805.14 -2613.07,-3318.26 -6061.33,-6168.16 -9885.11,-8397.25 -6095.2,-3553.22 -12045.47,-5195.44 -17382.58,-5239.5 -1921.93,737.87 -3794.44,1706.59 -5581.29,2861.45 -3675.05,2375.23 -6984.19,5535.92 -9614.43,9094.19 -3392.66,4589.7 -5273.57,8880.62 -5974.97,12781.62 362.18,3279.86 1258.37,6805.26 2765.61,10525.64 952.83,2351.91 2148.24,4562.49 3560.72,6530.02 110.16,153.44 221.66,305.39 334.44,455.86 636.18,505.82 1304.68,978.34 2000.87,1416.07 1592.81,1001.49 3330.23,1821.07 5154.97,2442.91 -408.05,-375.42 -811.31,-768.94 -1209.21,-1181.1 -2005.36,-2077.19 -3662.91,-4395.79 -4928.05,-6715.03 -1370.44,-2512.26 -2281.25,-5025.87 -2676.25,-7236.48 -38.83,-217.46 105.98,-425.23 323.44,-464.06 217.46,-38.83 425.23,105.98 464.06,323.44 381.4,2134.51 1262.4,4564.4 2588.75,6995.84 1231.85,2258.21 2847.23,4517.3 4803.05,6543.17 815.5,844.72 1653.59,1608.82 2509.75,2295.7 883.38,228.94 1781.81,412.91 2689.38,550.11 8577.48,1296.67 17952.73,-1587.99 23072.69,-10073.14 2562.92,-4247.45 3192.42,-9357.86 2181.24,-14160.95 -570.35,-2709.16 -1661.84,-5318.71 -3222.03,-7619.2 -1557.63,-2296.71 -3584.2,-4286.65 -6027.48,-5760.93 -3991.84,-2408.7 -9100.61,-3437.59 -15100.27,-2174.5zm-3956.62 39969.4c-2372.29,-631.05 -4638.45,-1578.64 -6689.12,-2812.21 736.36,768.55 1514.6,1477.3 2332.4,2116.76 643.69,503.32 1317.39,952.35 2016.58,1349.47 2133.16,1211.57 4495.16,1931.69 6961.05,2230.16 -1579.33,-745.67 -3127.01,-1702 -4620.91,-2884.18zm-9242.5 -4588.71c-2035.5,-1632.97 -3749.59,-3599.06 -4995.34,-5857.15 -1907.91,-3458.34 -2716.42,-7593.82 -1899,-12255.24 -358.48,-3363.53 -168.66,-6478.68 490.54,-9292.29 1084.53,-4629.04 3437.54,-8441.6 6708.68,-11204.82 3268.2,-2760.73 7450.31,-4470.03 12196.39,-4895.37 796.3,-71.37 1608.62,-106.17 2434.99,-104.04 1808.66,-683.23 3661.13,-1168.38 5529.28,-1420.2 4293.44,-578.74 8275.73,338.86 11735.99,2304.16 3396.02,1928.83 6285.99,4867.4 8469.35,8389.11 925.37,1492.61 1723.88,3090.41 2380.33,4760.63 1118.61,1432.12 2087.02,2949.36 2870.15,4540.47 2325.4,4724.6 3021.09,10093.13 1186.1,15807.91 -1465.14,4562.91 -4009.9,8537.01 -7222.7,11638.69 -3126.77,3018.63 -6887.79,5211.81 -10904.1,6318.47 -4024.58,1108.93 -8304.32,1127.23 -12459.35,-206.94 -96.08,-30.85 -192.09,-62.56 -288.03,-94.86 -3449.75,-50.63 -6790.56,-825.56 -9724.68,-2492.04 -730.24,-414.75 -1436.23,-885.59 -2113.44,-1415.11 -1623.51,-1269.47 -3094.22,-2799.39 -4395.16,-4521.38zm-4295.34 -6241.53c651.37,1180.69 1437.19,2278.77 2334.52,3287.77 -793.54,-1361.82 -1495.87,-2801.62 -2100.75,-4294.66 -1079.53,-2664.65 -1851.45,-5233.8 -2343.46,-7689.52 -66.86,3242.24 711.53,6162.06 2109.69,8696.41zm-1971.37 -14522.52c981.3,-3306.69 2763.27,-6844.68 5514.5,-10566.63 2686.47,-3634.34 6067.63,-6863.42 9823.79,-9291.07 1230.59,-795.34 2501.83,-1504.8 3802.55,-2114.61 -101.61,7.85 -203.02,16.19 -304.1,25.25 -4576.59,410.15 -8605.39,2055.06 -11749.53,4710.99 -3141.21,2653.47 -5402.06,6320.16 -6446.18,10776.7 -468.69,2000.46 -692.21,4160.33 -641.03,6459.37zm26838.51 -23474.44c-1141.37,153.85 -2277.57,398.13 -3401.71,724.21 4915.01,400.22 10254.81,2079.51 15696.62,5251.84 3110.55,1813.31 5979.86,4031.66 8372.15,6576.87 -383.9,-766.43 -799.79,-1511.62 -1246.1,-2231.51 -2114.12,-3410.03 -4907.28,-6252.49 -8184.99,-8114.11 -3314,-1882.23 -7126.74,-2761.21 -11235.97,-2207.3zm23390.87 17340.04c418.07,1442.3 732.7,2922.75 934.89,4422.76 772.58,5731.38 -93.05,11751.19 -3085.9,17020.63 -504.37,888.03 -1087.85,1752.15 -1740.41,2586.72 -3625.45,4636.59 -9377.38,8331.42 -15530.76,10121.19 -1855.34,539.64 -3748.1,906.35 -5631.37,1074.13 3315.57,681.76 6669.78,513.36 9859.04,-365.41 3887.4,-1071.14 7530.97,-3197.08 10563.48,-6124.71 3120.72,-3012.78 5592.79,-6873.75 7016.44,-11307.45 1765.42,-5498.1 1095.64,-10664.05 -1142.34,-15211.03 -372.27,-756.36 -788.1,-1495.67 -1243.07,-2216.83z"></path></g></svg>