<svg xmlns="http://www.w3.org/2000/svg" data-name="Layer 1" viewBox="0 0 5 5" x="0px" y="0px"><title>icon</title><path d="M.60686,3.64405a1.17741,1.17741,0,0,0,.31293-.00094,1.06177,1.06177,0,0,0,.27759-.08343,1.76427,1.76427,0,0,0,.47134-.33214c.06187-.05714.122-.11632.18146-.17634a.14508.14508,0,0,0,.0089.0777.19108.19108,0,0,0,.09226.09576.40509.40509,0,0,0,.33627.01282.81005.81005,0,0,0,.16462-.058.23311.23311,0,0,0,.10874.16812.46954.46954,0,0,0,.21281.06327,1.17728,1.17728,0,0,0,.20447-.00021,1.233,1.233,0,0,0,.19755-.03078c.11024.05688.23254.08755.31621-.00126a.2594.2594,0,0,0,.0647-.15068q.04017-.023.07868-.04858a.88645.88645,0,0,0,.27153-.27186.54166.54166,0,0,0,.07452-.36392A.5205.5205,0,0,0,3.821,2.225a.47252.47252,0,0,0-.2877-.10406,1.04513,1.04513,0,0,0-.33.04491c-.05667.01579-.11236.03417-.16728.05455a1.95024,1.95024,0,0,0-.20485-.16373q-.00618-.056-.018-.11206c.04318-.00816.08631-.01642.129-.02608a1.63043,1.63043,0,0,0,.33573-.109.4254.4254,0,0,0,.26646-.29141.052.052,0,0,0-.02353-.04963.56273.56273,0,0,0-.335-.07328,1.90661,1.90661,0,0,0-.35463.05672c-.07162.01672-.14369.03216-.21541.04865a.50055.50055,0,0,0-.2066-.168.307.307,0,0,0-.32293.06559.59692.59692,0,0,0-.17317.33955,7.10646,7.10646,0,0,0-.819.44576Q1.0016,2.24033.90962,2.298c-.036.02248.0048.08893.04091.06661a9.30637,9.30637,0,0,1,.87362-.49425q.0381-.01832.07669-.03583a.76224.76224,0,0,0,.03522.26568.66765.66765,0,0,0-.04851.1159.59308.59308,0,0,0,.01426.41592.41163.41163,0,0,0,.08144.11985c-.12173.12184-.23825.24952-.36192.369a1.91,1.91,0,0,1-.45193.33969A.99409.99409,0,0,1,.606,3.56572L.59939,3.565C.5522,3.55922.56008,3.63837.60686,3.64405Zm1.78793-.61574L2.38833,3.034l-.01022.00858a.65118.65118,0,0,1-.08757.06107l-.02821.015c.03087-.08942.06781-.17566.10161-.26351a.61935.61935,0,0,0,.08769-.02238q.03319.03105.06711.06121-.03126.04-.06554.07686c-.01247.01345-.02542.02643-.03859.03908Zm.022-.32545.013-.04652c.09-.05637.18268-.10811.27692-.15722a.50651.50651,0,0,1-.14194.19123.44254.44254,0,0,1-.12046.069l-.02353-.02295-.011-.01088Zm-.0821-.12666.00171-.0015.01319-.01127.02959-.02507L2.38576,2.533l-.0022.01275ZM2.46044,2.5l.00325-.0297A1.23966,1.23966,0,0,1,2.66676,2.336l.02391-.01123.00161-.00061.0132-.00494a.21964.21964,0,0,1,.04145-.01043l.00812,0,.00531.00042-.00568.03389c-.05229.02568-.10393.05242-.15509.07962Q2.52921,2.46017,2.46044,2.5Zm.13564.2837q-.023.03659-.04825.07141l-.0461-.0418a.50242.50242,0,0,0,.12455-.08044l-.00337.00594-.01417.0243-.00557.00922Zm.03532.20681-.01658.01132.01286-.01445Zm.41387.32126-.03207.00407-.01628.00157-.00255.00016-.01137.001c-.0308.00255-.06182.00442-.093.00529a.80541.80541,0,0,1-.20862-.01731.40622.40622,0,0,1-.04774-.01527l-.01125-.00468-.00274-.00112L2.618,3.28476l-.024-.01352-.01572-.011-.00543-.00468-.00816-.00793-.0076-.00833L2.5561,3.238l-.00056-.00068-.00641-.0095L2.546,3.22238l-.00075-.00178-.00788-.02285L2.53667,3.1953l-.00019-.00108-.00161-.01139L2.534,3.17158l-.00011-.00741.00269-.02222.0014-.00716c.05246-.02991.103-.06313.15208-.09653l.02679.02138c.11084.08767.225.17313.34191.25Zm.3516.05913a.21414.21414,0,0,1-.14268-.01242l.03693-.0119a1.542,1.542,0,0,0,.1993-.083A.15825.15825,0,0,1,3.39686,3.37093ZM3.38765,2.24146l.03857-.00576.01909-.00232.0095-.001.00159-.00021.00133-.00009a.76308.76308,0,0,1,.07688-.0025.592.592,0,0,1,.07314.00606l.01022.00166L3.63127,2.24l.0349.0095.03083.01125.00851.0037.01366.007.02774.01686.01326.00945.00241.00189.00377.003.02423.02306.01137.01256.0055.00662.00035.00037a.3922.3922,0,0,1,.03848.06339l.00391.009.00755.01883c.00611.016.01148.03225.01637.04853l.0065.02381.00281.0119.00007.00021.00037.002c.00335.0167.00564.0334.00732.05008.0015.01508.00213.03008.00225.045l0,.00547-.0003.00734-.00192.02538c-.00147.01439-.0037.02854-.00639.04252l-.00456.02082-.00264.01027-.00012.0004L3.876,2.73513a.52768.52768,0,0,1-.03293.08189c-.00636.01279-.01333.02519-.02056.03738l-.00068.00117-.00068.00108-.00582.009-.0142.02082a.79517.79517,0,0,1-.12429.13594l-.00119.001-.00155.00136-.0087.00732-.01766.01441c-.01293.01034-.02615.0203-.0395.03q-.02561.0187-.05225.03583a.919.919,0,0,0-.04423-.18946,1.60091,1.60091,0,0,0-.10715-.23766C3.3902,2.65839,3.37485,2.632,3.35878,2.606a1.35981,1.35981,0,0,0,.23331-.19493.042.042,0,0,0,.006-.04049.05017.05017,0,0,0-.0411-.03394.41586.41586,0,0,0-.18929.01441.83628.83628,0,0,0-.14993.06011q-.043-.052-.08961-.10065A1.58716,1.58716,0,0,1,3.38765,2.24146ZM3.275,2.48364l.00456-.00229a.70626.70626,0,0,1,.09709-.03965.53845.53845,0,0,1,.07817-.01941,1.58083,1.58083,0,0,1-.14226.11337Q3.2942,2.50928,3.275,2.48364Zm.10408.27511a.99056.99056,0,0,1,.12406.38614,1.45829,1.45829,0,0,1-.1434.073l-.02049.00891-.00086.00035-.00269.00112-.01022.00421-.04414.017c-.02736.0101-.05513.01923-.0832.02755q-.03382.0101-.06841.01827c-.0428-.02624-.08444-.0555-.12577-.0847-.06046-.04264-.12067-.08561-.18-.13035q-.04621-.03481-.09183-.0708c.06741-.04678.13377-.09534.20232-.14038.08577-.05632.175-.10722.26269-.16034.038-.023.07606-.04633.11358-.07071Q3.34749,2.69675,3.379,2.75875Zm-.15669-.24756q.02175.02838.04229.05768c-.07415.05008-.151.09634-.22686.14261q-.1216.07406-.23691.15772c-.04271.0309-.08518.06208-.12814.09251l-.01108-.00912.038-.03572q.06293-.05758.12662-.114c.02535-.02236.04442-.03841.0726-.06231s.05735-.04706.08664-.06975A2.06386,2.06386,0,0,1,3.17623,2.538Zm-.15627-.17781c.034.034.06687.06949.09831.10631a2.27591,2.27591,0,0,0-.36474.26543l-.052.04563A1.229,1.229,0,0,0,2.84861,2.493c.00552-.021.01191-.04613.01647-.07286l.045-.021q.03845-.01758.07735-.03415l.00484-.002.00515-.00218.01918-.00788.04194-.01661ZM2.9718,2.24525q-.05487.02214-.10867.04654a.14449.14449,0,0,0-.02692-.05193l.00023-.00353q.0026-.04887.0007-.09866C2.88341,2.17129,2.92837,2.20729,2.9718,2.24525ZM2.75668,2.0074l-.00374-.00227q-.03056-.01909-.06178-.03672l.05624-.01132ZM2.7353,1.56393c.10844-.024.2157-.05167.32629-.06849l.04283-.00587.02145-.0025L3.13658,1.486l.00664-.00066.0011-.00012c.02931-.0025.05882-.00386.08855-.00383a.75013.75013,0,0,1,.086.00486l.03647.00538.006.00117.00966.00206.02222.00566a.43339.43339,0,0,1,.05185.018l.009.004.0044.00229-.011.02865a.26861.26861,0,0,1-.01425.02755L3.431,1.58475l-.00477.00709-.0119.01616a.38668.38668,0,0,1-.04851.05132l-.00445.00381L3.3542,1.669l-.01473.01142-.03389.02332a.78918.78918,0,0,1-.07164.04039l-.03686.01735L3.16053,1.777a1.67054,1.67054,0,0,1-.16677.05583c-.06446.01836-.13.03366-.1958.04818a1.15606,1.15606,0,0,0-.06858-.18763,1.22318,1.22318,0,0,0-.061-.115Zm-.48708-.177a.23814.23814,0,0,1,.151.01357.40886.40886,0,0,1,.14691.1166c-.03043.00744-.06079.0152-.09094.02353A3.74133,3.74133,0,0,0,1.97649,1.71a.548.548,0,0,1,.13608-.24478A.29486.29486,0,0,1,2.24823,1.38692Zm-.2947.46207.00366-.03957c.10666-.04687.21533-.08947.32629-.12687q.12-.04042.24344-.072c.02479-.00634.04972-.01219.07468-.01778A1.06458,1.06458,0,0,1,2.68288,1.75a1.11587,1.11587,0,0,1,.04983.14532l-.09652.02133a.02127.02127,0,0,0-.01614.014q-.06017-.03017-.12193-.05457c-.04133-.0164-.05127.05167-.01.06783a1.52687,1.52687,0,0,1,.27842.14509,1.02454,1.02454,0,0,1,.00323.10827.24558.24558,0,0,0-.15537.03165.93544.93544,0,0,0-.14766.08972q-.00172-.03-.00533-.06016a.62217.62217,0,0,0-.02875-.13482.411.411,0,0,0-.11021-.18071.19483.19483,0,0,0-.1623-.04757A.28288.28288,0,0,0,2,2.00415c-.01036.01258-.02027.02585-.02967.03958A.68171.68171,0,0,1,1.95353,1.849Zm.04078.27881c.00734-.01235.015-.02437.02306-.036a.40858.40858,0,0,1,.07378-.08324.20991.20991,0,0,1,.07339-.04086.14222.14222,0,0,1,.03144-.0054.13455.13455,0,0,1,.01785.00061l.00882.00108.00063.00009.00547.00136.017.00554.00683.0029c-.004-.00176.00356.002.00433.00234l.016.01.00674.005c-.004-.003.00522.00458.00625.00543a.22125.22125,0,0,1,.05169.06928.49666.49666,0,0,1,.03763.10231.767.767,0,0,1,.024.20131L2.387,2.37928c-.05649.04449-.11122.09143-.16473.13985A1.326,1.326,0,0,1,1.99431,2.12779Zm.34076.59.00428.00444q-.01095.03445-.02292.06832a.50307.50307,0,0,1-.09113.00428Q2.27919,2.755,2.33507,2.71777Zm-.41758-.215a.55385.55385,0,0,1,.04788-.32021,1.52366,1.52366,0,0,0,.22276.36776l-.02669.02479c-.04337.04063-.08384.08446-.12642.12584l-.01216.01188A.36965.36965,0,0,1,1.91749,2.50273Zm.0379.59314-.00062-.00678L1.956,3.07971l.00143-.00676.00058-.00183.00954-.0228.00809-.01518.00488-.0077.00908-.013a.69392.69392,0,0,1,.08617-.09524l.02513-.02308.00847-.00742.01216-.0105.03216-.02638a.45286.45286,0,0,0,.06748.01174A.48974.48974,0,0,0,2.29,2.86333c-.03452.09337-.06972.18583-.09948.28164l-.02783.00585-.01658.00234-.008.00061-.01523.00044a.31184.31184,0,0,1-.046-.00334l-.00726-.00122-.00551-.00122-.022-.00536-.03334-.01043-.01471-.00573-.00274-.00117-.00177-.00091-.02226-.0135L1.967,3.111l-.00771-.00753L1.959,3.10321l-.00247-.004Z" fill="#000000"></path></svg>